<svg width="24" height="24" viewBox="0 0 24 24" fill="none" xmlns="http://www.w3.org/2000/svg">
<path d="M12 22C6.477 22 2 17.523 2 12C2 6.477 6.477 2 12 2C17.523 2 22 6.477 22 12C21.994 17.52 17.52 21.994 12 22ZM12 4C10.4177 4 8.87103 4.46919 7.55544 5.34824C6.23984 6.22729 5.21447 7.47672 4.60896 8.93853C4.00346 10.4003 3.84504 12.0089 4.15372 13.5607C4.4624 15.1126 5.22433 16.538 6.34315 17.6569C7.46197 18.7757 8.88743 19.5376 10.4393 19.8463C11.9911 20.155 13.5997 19.9965 15.0615 19.391C16.5233 18.7855 17.7727 17.7602 18.6518 16.4446C19.5308 15.129 20 13.5823 20 12C19.9976 9.879 19.154 7.84555 17.6542 6.34578C16.1544 4.846 14.121 4.00238 12 4V4ZM17 13H11V7H13V11H17V13Z" fill="black"/>
</svg>
