<svg width="176" height="176" viewBox="0 0 176 176" fill="none" xmlns="http://www.w3.org/2000/svg">
<path d="M118.113 6.75812C115.69 4.32889 112.732 2.50171 109.475 1.42337C106.218 0.345018 102.754 0.045566 99.36 0.54906C95.9664 1.05255 92.7382 2.34496 89.9347 4.32245C87.1312 6.29995 84.8306 8.90741 83.2176 11.9354L53.6751 67.3641L12.5643 81.0677C11.3808 81.4608 10.3176 82.15 9.47557 83.0699C8.63356 83.9897 8.04076 85.1095 7.75351 86.323C7.46626 87.5365 7.49411 88.8032 7.8344 90.0029C8.1747 91.2026 8.81613 92.2953 9.69775 93.1772L41.0976 124.562L2.38525 163.275L0.25 175.75L12.7251 173.615L51.4375 134.902L82.8228 166.302C83.7047 167.184 84.7974 167.825 85.9971 168.166C87.1968 168.506 88.4635 168.534 89.677 168.246C90.8905 167.959 92.0103 167.366 92.9301 166.524C93.85 165.682 94.5392 164.619 94.9323 163.436L108.636 122.339L163.904 92.7385C166.916 91.1225 169.509 88.8248 171.476 86.0288C173.443 83.2328 174.729 80.0159 175.232 76.6346C175.735 73.2534 175.44 69.8014 174.373 66.554C173.305 63.3067 171.493 60.3538 169.081 57.931L118.128 6.74349L118.113 6.75812Z" fill="white"/>
</svg>
