<svg width="36" height="36" viewBox="0 0 36 36" fill="none" xmlns="http://www.w3.org/2000/svg">
<path d="M32.16 16.08L8.94001 4.46999C8.62676 4.32486 8.28218 4.26038 7.93765 4.28242C7.59312 4.30447 7.25957 4.41233 6.96737 4.5962C6.67517 4.78007 6.43359 5.0341 6.26464 5.33517C6.09568 5.63624 6.00471 5.97479 6.00001 6.31999V29.53C5.99708 29.8843 6.08562 30.2335 6.25706 30.5436C6.4285 30.8537 6.67704 31.1144 6.97867 31.3004C7.2803 31.4864 7.6248 31.5915 7.9789 31.6054C8.33299 31.6193 8.68469 31.5417 9.00001 31.38L32.16 19.77C32.5031 19.5978 32.7915 19.3336 32.9931 19.0069C33.1946 18.6802 33.3014 18.3039 33.3014 17.92C33.3014 17.5361 33.1946 17.1598 32.9931 16.8331C32.7915 16.5064 32.5031 16.2422 32.16 16.07V16.08Z" fill="#699BF7"/>
</svg>
